<svg width="559" height="171" viewBox="0 0 559 171" fill="none" xmlns="http://www.w3.org/2000/svg">
<path opacity="0.9" fill-rule="evenodd" clip-rule="evenodd" d="M62.125 77.425C62.125 92.5 53.125 99.7 42.1 99.7H28.6V169H0.25V1.59997H41.65C53.575 1.59997 62.125 7.89997 62.125 23.425V77.425ZM30.625 23.2H28.6V76.975H30.625C32.875 76.975 34 75.625 34 72.7V27.475C34 24.775 33.55 23.2 30.625 23.2ZM89.4695 50.65L86.0945 114.325H92.8445L89.4695 50.65ZM123.445 169H95.7695L94.1945 138.85H84.5195L82.9445 169H58.4195L72.3695 1.59997H108.37L123.445 169ZM189.405 143.125C189.405 157.75 179.955 170.8 159.48 170.8H154.98C133.155 170.8 125.055 157.975 125.055 143.125V1.59997H154.305V139.75C154.305 142.675 155.205 144.025 157.23 144.025C159.255 144.025 160.38 142.675 160.38 139.75V1.59997H189.405V143.125ZM193.829 169V1.59997H222.179L222.404 142.45H240.404L240.179 169H193.829ZM277.923 0.0249634C299.298 0.0249634 308.298 13.075 308.298 33.1V138.175C308.298 159.1 296.823 170.575 278.148 170.575H273.423C253.623 170.575 243.048 158.875 243.048 138.175V33.1C243.048 12.4 252.048 0.0249634 273.423 0.0249634H277.923ZM275.673 145.15C277.923 145.15 279.048 143.575 279.048 140.65V29.95C279.048 26.575 277.923 25 275.673 25C273.648 25 272.523 26.575 272.523 29.95V140.65C272.523 143.575 273.648 145.15 275.673 145.15ZM371.454 169H330.279V1.59997H371.004C383.379 1.59997 393.054 7.89997 393.054 25.675V143.575C393.054 161.35 384.054 169 371.454 169ZM360.879 24.55H358.179V145.375H360.879C363.579 145.375 364.254 143.575 364.254 139.75V29.725C364.254 26.35 363.579 24.55 360.879 24.55ZM397.516 1.59997H426.091V169H397.516V1.59997ZM459.269 50.65L455.894 114.325H462.644L459.269 50.65ZM493.244 169H465.569L463.994 138.85H454.319L452.744 169H428.219L442.169 1.59997H478.169L493.244 169ZM558.744 140.875C558.744 158.875 549.969 170.575 529.269 170.575H522.744C504.069 170.575 494.844 162.025 494.844 144.7V100.825H522.744V142.675C522.744 145.6 523.644 147.175 525.669 147.175C527.694 147.175 528.819 145.6 528.819 142.45V109.825C528.819 104.425 528.144 102.175 523.869 98.35L509.244 85.75C499.569 77.65 495.519 68.425 495.519 55.825V26.125C495.519 10.6 503.619 0.0249634 524.094 0.0249634H530.619C551.094 0.0249634 557.619 10.375 557.619 23.875V60.775H530.169V25.225C530.169 22.75 529.269 21.625 527.244 21.625C525.219 21.625 524.319 22.75 524.319 25.225V53.8C524.319 58.3 525.219 59.875 528.819 63.25L543.219 75.85C554.469 85.3 558.744 92.725 558.744 107.575V140.875ZM2.184 159.672C2.184 157.008 4.002 155.442 6.18 155.442C8.358 155.442 10.176 157.008 10.176 159.672V162.138H15V164.64H2.184L2.184 159.672ZM7.926 159.798C7.926 158.664 7.224 157.944 6.18 157.944C5.136 157.944 4.416 158.664 4.416 159.798V162.138H7.926V159.798ZM2.184 146.585V144.083H15V146.585H9.636L9.636 150.923H15V153.425H2.184L2.184 150.923H7.422L7.422 146.585H2.184ZM3.426 133.381C4.704 132.103 6.144 132.067 8.592 132.067C11.04 132.067 12.48 132.103 13.758 133.381C14.622 134.245 15.108 135.325 15.108 136.801C15.108 138.277 14.622 139.375 13.758 140.239C12.48 141.517 11.04 141.535 8.592 141.535C6.144 141.535 4.704 141.517 3.426 140.239C2.562 139.375 2.076 138.277 2.076 136.801C2.076 135.325 2.562 134.245 3.426 133.381ZM12.174 135.199C11.634 134.731 11.04 134.569 8.592 134.569C6.144 134.569 5.532 134.731 4.992 135.199C4.578 135.559 4.308 136.117 4.308 136.801C4.308 137.485 4.578 138.043 4.992 138.421C5.532 138.889 6.144 139.033 8.592 139.033C11.04 139.033 11.634 138.889 12.174 138.421C12.588 138.043 12.876 137.485 12.876 136.801C12.876 136.117 12.588 135.559 12.174 135.199ZM2.184 121.626H4.416V124.974H15V127.476H4.416V130.824H2.184L2.184 121.626ZM3.426 112.217C4.704 110.939 6.144 110.903 8.592 110.903C11.04 110.903 12.48 110.939 13.758 112.217C14.622 113.081 15.108 114.161 15.108 115.637C15.108 117.113 14.622 118.211 13.758 119.075C12.48 120.353 11.04 120.371 8.592 120.371C6.144 120.371 4.704 120.353 3.426 119.075C2.562 118.211 2.076 117.113 2.076 115.637C2.076 114.161 2.562 113.081 3.426 112.217ZM12.174 114.035C11.634 113.567 11.04 113.405 8.592 113.405C6.144 113.405 5.532 113.567 4.992 114.035C4.578 114.395 4.308 114.953 4.308 115.637C4.308 116.321 4.578 116.879 4.992 117.257C5.532 117.725 6.144 117.869 8.592 117.869C11.04 117.869 11.634 117.725 12.174 117.257C12.588 116.879 12.876 116.321 12.876 115.637C12.876 114.953 12.588 114.395 12.174 114.035ZM7.872 99.4044H9.744C11.598 99.4044 12.678 99.6924 13.65 100.628C14.766 101.69 15.108 102.878 15.108 104.246C15.108 105.704 14.622 106.784 13.758 107.666C12.48 108.944 11.04 108.962 8.592 108.962C6.144 108.962 4.704 108.944 3.426 107.666C2.562 106.784 2.076 105.704 2.076 104.246C2.076 101.258 4.02 99.7644 6.18 99.4224V101.942C4.956 102.23 4.308 102.968 4.308 104.246C4.308 104.93 4.578 105.47 4.992 105.848C5.532 106.316 6.144 106.46 8.592 106.46C11.04 106.46 11.67 106.316 12.21 105.848C12.624 105.47 12.876 104.93 12.876 104.246C12.876 103.472 12.606 102.86 12.156 102.464C11.688 102.05 11.112 101.888 10.446 101.888H9.978V104.246H7.872V99.4044ZM9.474 90.0009L15 87.1389V90.0369L9.888 92.5389V94.3389H15V96.8409H2.184L2.184 91.8189C2.184 89.2089 3.966 87.6609 6.108 87.6609C7.908 87.6609 9.024 88.7589 9.474 90.0009ZM7.8 91.9809C7.8 90.8829 7.098 90.1629 6.108 90.1629C5.118 90.1629 4.416 90.8829 4.416 91.9809V94.3389H7.8V91.9809ZM2.184 79.8436L15 75.1636V77.7736L12.732 78.5296V83.0836L15 83.8576V86.4676L2.184 81.8056V79.8436ZM10.626 82.3816V79.1956L5.964 80.7616L10.626 82.3816ZM2.184 68.6171C2.184 65.9531 4.002 64.3871 6.18 64.3871C8.358 64.3871 10.176 65.9531 10.176 68.6171V71.0831H15L15 73.5851H2.184L2.184 68.6171ZM7.926 68.7431C7.926 67.6091 7.224 66.8891 6.18 66.8891C5.136 66.8891 4.416 67.6091 4.416 68.7431V71.0831H7.926V68.7431ZM2.184 53.0282H15V55.5302H9.636V59.8682H15V62.3702H2.184L2.184 59.8682L7.422 59.8682V55.5302H2.184L2.184 53.0282ZM12.768 41.606H15V50.048H2.184L2.184 41.606H4.416V47.546L7.422 47.546L7.422 42.488H9.654V47.546H12.768V41.606ZM9.474 32.3095L15 29.4475V32.3455L9.888 34.8475V36.6475H15L15 39.1495H2.184L2.184 34.1275C2.184 31.5175 3.966 29.9695 6.108 29.9695C7.908 29.9695 9.024 31.0675 9.474 32.3095ZM7.8 34.2895C7.8 33.1915 7.098 32.4715 6.108 32.4715C5.118 32.4715 4.416 33.1915 4.416 34.2895L4.416 36.6475L7.8 36.6475L7.8 34.2895Z" fill="#F2F2F2"/>
</svg>
