<svg width="45" height="40" viewBox="0 0 45 40" fill="none" xmlns="http://www.w3.org/2000/svg">
<path d="M37.3847 5.40236H33.1501L32.3798 3.21884C31.7027 1.29539 29.8724 0 27.8312 0H16.2905C14.2493 0 12.419 1.29539 11.7419 3.21884L10.9715 5.40236H6.737C3.02257 5.40236 0 8.42493 0 12.1394V33.2679C0 36.9823 3.02257 40 6.73209 40H37.3847C41.0991 40 44.1168 36.9774 44.1168 33.2679V12.1394C44.1217 8.42493 41.0991 5.40236 37.3847 5.40236ZM40.1963 33.2679C40.1963 34.8185 38.9352 36.0746 37.3896 36.0746H6.73209C5.18646 36.0795 3.92542 34.8185 3.92542 33.2679V12.1394C3.92542 10.5888 5.18646 9.33268 6.73209 9.33268H11.6781C12.9146 9.33268 14.0186 8.5525 14.4308 7.38469L15.4416 4.52895C15.5692 4.16585 15.9078 3.92542 16.2905 3.92542H27.8312C28.2139 3.92542 28.5525 4.16585 28.6801 4.52404L29.6909 7.38469C30.103 8.5476 31.2071 9.32777 32.4387 9.32777H37.3847C38.9352 9.32777 40.1914 10.5888 40.1914 12.1344V33.2679H40.1963Z" fill="#F2F2F2"/>
<path d="M22.0612 10.0293C15.702 10.0293 10.5254 15.2059 10.5254 21.5651C10.5254 27.9243 15.702 33.1009 22.0612 33.1009C28.4204 33.1009 33.597 27.9243 33.597 21.5651C33.597 15.2059 28.4204 10.0293 22.0612 10.0293ZM22.0612 29.1755C17.8659 29.1755 14.4508 25.7604 14.4508 21.5651C14.4508 17.3698 17.8659 13.9547 22.0612 13.9547C26.2565 13.9547 29.6716 17.3698 29.6716 21.5651C29.6716 25.7604 26.2565 29.1755 22.0612 29.1755Z" fill="#F2F2F2"/>
</svg>
