<svg width="50" height="40" viewBox="0 0 50 40" fill="none" xmlns="http://www.w3.org/2000/svg">
<path d="M49.7297 2.16216C49.7297 0.972973 48.7568 0 47.5676 0H2.16216C0.972973 0 0 0.972973 0 2.16216V30.2703C0 31.4595 0.972973 32.4324 2.16216 32.4324H47.5676C48.7568 32.4324 49.7297 31.4595 49.7297 30.2703V2.16216ZM45.4054 28.1081H4.32432V4.32432H45.4054V28.1081ZM37.5676 37.8378C37.5676 39.027 36.5946 40 35.4054 40H14.3243C13.1351 40 12.1622 39.027 12.1622 37.8378C12.1622 36.6486 13.1351 35.6757 14.3243 35.6757H35.3513C36.5946 35.6757 37.5676 36.6486 37.5676 37.8378Z" fill="#F2F2F2"/>
</svg>
