<svg width="26" height="30" viewBox="0 0 26 30" fill="none" xmlns="http://www.w3.org/2000/svg">
<path d="M2.2368 19.9198L0.0438747 28.3094C-0.0618693 28.714 0.0259222 29.1445 0.281384 29.4752C0.536845 29.8063 0.931324 30 1.34935 30H24.4856C24.9037 30 25.2981 29.8063 25.5536 29.4752C25.8091 29.1445 25.8968 28.714 25.7911 28.3094L23.5983 19.9198C23.443 19.3261 22.9066 18.9118 22.2929 18.9118H19.133C20.7864 16.4936 22.2091 13.443 22.3416 9.99781C22.3518 9.81712 22.3582 9.63528 22.3582 9.45213C22.3582 4.24026 18.118 0 12.9061 0C7.69409 0 3.45384 4.24025 3.45384 9.45213C3.45384 9.63891 3.46059 9.82421 3.47014 9.98513C3.61105 13.3945 5.07138 16.4664 6.75056 18.9118H3.54228C2.92858 18.9118 2.39212 19.3261 2.2368 19.9198ZM6.16527 9.85072C6.15753 9.71879 6.15242 9.58603 6.15242 9.45213C6.15242 5.72823 9.18207 2.69858 12.9061 2.69858C16.63 2.69858 19.6597 5.72823 19.6597 9.45213C19.6597 9.58356 19.6549 9.71368 19.6462 9.86867C19.4284 15.5258 14.8283 20.162 12.9177 21.8504C11.008 20.1238 6.39471 15.3965 6.16527 9.85072ZM8.87404 21.6104C10.5214 23.4555 11.9399 24.5737 12.0785 24.6812C12.3217 24.8703 12.6139 24.9649 12.9061 24.9649C13.1904 24.9649 13.4749 24.8753 13.7148 24.6957C13.8559 24.5901 15.3188 23.4763 17.0012 21.6104H21.2509L22.7384 27.3014H3.09675L4.58423 21.6104H8.87404V21.6104Z" fill="#F2F2F2"/>
<path d="M17.3196 9.45226C17.3196 7.01886 15.3398 5.03906 12.9064 5.03906C10.473 5.03906 8.49316 7.01886 8.49316 9.45226C8.49316 11.8857 10.473 13.8655 12.9064 13.8655C15.3398 13.8655 17.3196 11.8857 17.3196 9.45226ZM11.1917 9.45226C11.1917 8.50684 11.9609 7.73765 12.9064 7.73765C13.8518 7.73765 14.621 8.50683 14.621 9.45226C14.621 10.3977 13.8518 11.1669 12.9064 11.1669C11.9609 11.1669 11.1917 10.3977 11.1917 9.45226Z" fill="#F2F2F2"/>
</svg>
