<svg width="30" height="23" viewBox="0 0 30 23" fill="none" xmlns="http://www.w3.org/2000/svg">
<path d="M4.96454 22.5213H25.0355C27.7731 22.5213 30 20.2943 30 17.5567V1.41844C30 1.4078 29.9965 1.40071 29.9965 1.39007C29.9965 1.30496 29.9894 1.21986 29.9716 1.13475C29.9681 1.12411 29.9645 1.11702 29.9645 1.10993C29.9504 1.0461 29.9326 0.985816 29.9113 0.925532C29.9078 0.914894 29.9007 0.907801 29.8972 0.897163C29.8865 0.868794 29.8723 0.840426 29.8582 0.815603C29.8333 0.765957 29.8085 0.716312 29.7801 0.670213C29.766 0.64539 29.7482 0.620567 29.7305 0.595745C29.695 0.546099 29.656 0.5 29.6135 0.457447C29.5993 0.439716 29.5851 0.421986 29.5674 0.407801C29.5071 0.351064 29.4468 0.297872 29.3794 0.251773C29.3652 0.241135 29.3511 0.234043 29.3333 0.22695C29.2766 0.191489 29.2199 0.159574 29.1596 0.134752C29.1348 0.124113 29.1064 0.113475 29.0816 0.102837C29.0284 0.0815603 28.9716 0.0638298 28.9149 0.0496454C28.8901 0.0425532 28.8617 0.035461 28.8369 0.0319149C28.7553 0.0106383 28.6702 0 28.5816 0H1.41844C1.32979 0 1.24468 0.0106383 1.15957 0.0248227C1.13475 0.0319149 1.10993 0.0390071 1.08156 0.0460993C1.02482 0.0602837 0.968085 0.0744681 0.914894 0.0957447C0.886525 0.106383 0.861702 0.117021 0.833333 0.12766C0.776596 0.156028 0.716312 0.187943 0.663121 0.223404C0.648936 0.230496 0.631206 0.237589 0.617021 0.248227C0.549645 0.294326 0.485816 0.347518 0.429078 0.404255C0.411348 0.41844 0.400709 0.43617 0.382979 0.453901C0.343972 0.496454 0.304965 0.546099 0.269504 0.595745C0.251773 0.620567 0.237589 0.64539 0.219858 0.666667C0.191489 0.712766 0.163121 0.762411 0.141844 0.812057C0.12766 0.840426 0.113475 0.865248 0.102837 0.893617C0.0992908 0.904255 0.0921986 0.914894 0.0886525 0.925532C0.0673759 0.985816 0.0496454 1.04965 0.035461 1.10993C0.0319149 1.12057 0.0319149 1.12766 0.0283688 1.13475C0.0106383 1.21986 0.0035461 1.30496 0.0035461 1.39007C0.0035461 1.40071 0 1.4078 0 1.41844V17.5567C0 20.2943 2.22695 22.5213 4.96454 22.5213ZM24.766 2.83688L15 11.2553L5.23404 2.83688H24.766ZM2.83688 4.51418L14.0745 14.2021C14.3404 14.4326 14.6702 14.5461 15 14.5461C15.3298 14.5461 15.6596 14.4326 15.9255 14.2021L27.1631 4.51418V17.5567C27.1631 18.7305 26.2092 19.6844 25.0355 19.6844H4.96454C3.79078 19.6844 2.83688 18.7305 2.83688 17.5567V4.51418Z" fill="#F2F2F2"/>
</svg>
