<svg width="30" height="31" viewBox="0 0 30 31" fill="none" xmlns="http://www.w3.org/2000/svg">
<path d="M29.1618 3.84849C29.1284 3.81512 29.1284 3.81512 29.0951 3.78175L25.4914 0.6452C24.9908 0.178054 24.3235 -0.0555194 23.5894 0.0112158C22.9554 0.077951 22.3214 0.344892 21.8543 0.812038C21.8209 0.845406 21.7876 0.878773 21.7542 0.912141L18.2172 5.3834C17.2829 6.38443 17.3163 7.91934 18.284 8.887C18.3507 8.95373 18.4174 9.02047 18.4842 9.05383L20.286 10.2551C20.1525 10.8891 19.2183 12.6909 15.9149 15.9943C12.6448 19.2643 10.8096 20.1986 10.209 20.3321L9.00777 18.5302C8.9744 18.4635 8.90766 18.3968 8.84093 18.33C7.87327 17.3624 6.30499 17.3624 5.33733 18.2633L0.899442 21.8003C0.866075 21.8336 0.832707 21.867 0.799339 21.9004C-0.201688 22.9014 -0.268423 24.5698 0.632501 25.5374L3.76906 29.1078C3.80242 29.1411 3.80242 29.1411 3.83579 29.1745C4.43641 29.7751 5.3707 30.0087 6.40509 30.0087C8.24031 30.0087 10.3425 29.2746 11.4436 28.8408C13.5791 28.0066 17.7501 25.9712 21.8877 21.8336C24.9575 18.7638 27.4267 15.06 28.8948 11.3896C29.4955 9.72118 30.8969 5.5836 29.1618 3.84849ZM19.9523 19.9984C13.7793 26.1714 6.83887 27.8732 5.67101 27.3059L2.63456 23.8023L6.97234 20.3654L8.14021 22.1339C8.17358 22.1673 8.17358 22.2007 8.20694 22.234C8.60736 22.7345 9.17461 23.0015 9.84196 23.0349C10.4759 23.0682 12.4446 23.1683 17.7501 17.8629C19.0514 16.5615 23.0555 12.5574 22.9221 9.95476C22.8887 9.28741 22.5884 8.72016 22.1212 8.31975C22.0879 8.28638 22.0545 8.25301 22.0211 8.25301L20.3194 7.05178L23.7562 2.68062L27.2265 5.71707C27.8271 6.88494 26.1253 13.8254 19.9523 19.9984Z" fill="#F2F2F2"/>
</svg>
