<?xml version="1.0" encoding="utf-8"?>
<!-- Generator: Adobe Illustrator 24.0.1, SVG Export Plug-In . SVG Version: 6.00 Build 0)  -->
<svg version="1.1" id="Layer_1" xmlns="http://www.w3.org/2000/svg" xmlns:xlink="http://www.w3.org/1999/xlink" x="0px" y="0px"
	 viewBox="0 0 92 46" style="enable-background:new 0 0 92 46;" xml:space="preserve">
<style type="text/css">
	.st0{fill:#ADCAEC;}
	.st1{fill:none;stroke:#ADCAEC;stroke-width:3;}
	.st2{fill:none;}
	.st3{fill:#F2F2F2;}
	.st4{fill:none;stroke:#F2F2F2;stroke-width:3;}
</style>
<g>
	<path class="st0" d="M79.4,20.5l-9.5-9.4c-0.3-0.2-0.6-0.4-0.9-0.4c-0.3,0-0.7,0.1-0.9,0.4l-9.5,9.4c-0.3,0.3-0.5,1-0.3,1.4
		c0.2,0.5,0.7,0.8,1.2,0.8h4.1V34c0,0.7,0.7,1.2,1.4,1.2H73c0.7,0,1.4-0.6,1.4-1.2V22.7h4.1c0.5,0,1-0.4,1.2-0.8
		C79.8,21.4,79.7,20.9,79.4,20.5z M73,20.3c-0.7,0-1.1,0.4-1.1,1.1v11.5h-5.7V21.4c0-0.7-0.4-1.1-1.1-1.1h-2.5l6.5-6.4l6.5,6.4H73z"
		/>
	<circle class="st1" cx="69" cy="23" r="21.5"/>
	<rect x="46" class="st2" width="46" height="46"/>
</g>
<g>
	<path class="st3" d="M33.4,20.5l-9.5-9.4c-0.3-0.2-0.6-0.4-0.9-0.4c-0.3,0-0.7,0.1-0.9,0.4l-9.5,9.4c-0.3,0.3-0.5,1-0.3,1.4
		c0.2,0.5,0.7,0.8,1.2,0.8h4.1V34c0,0.7,0.7,1.2,1.4,1.2H27c0.7,0,1.4-0.6,1.4-1.2V22.7h4.1c0.5,0,1-0.4,1.2-0.8
		C33.8,21.4,33.7,20.9,33.4,20.5z M27,20.3c-0.7,0-1.1,0.4-1.1,1.1v11.5h-5.7V21.4c0-0.7-0.4-1.1-1.1-1.1h-2.5l6.5-6.4l6.5,6.4H27z"
		/>
	<circle class="st4" cx="23" cy="23" r="21.5"/>
	<rect class="st2" width="46" height="46"/>
</g>
</svg>
